<svg xmlns="http://www.w3.org/2000/svg" viewBox="0 0 1200 1200"><rect width="1200" height="1200" fill="#050b14"/><circle cx="230" cy="180" r="280" fill="#c99a35" opacity=".1"/><g transform="translate(135 110) rotate(-5 465 500)"><rect width="930" height="980" fill="#f8f8f5"/><rect x="42" y="42" width="846" height="896" fill="none" stroke="#c99a35" stroke-opacity=".55" stroke-width="3"/><text x="78" y="112" fill="#153c2a" font-family="Arial,sans-serif" font-size="19" font-weight="700" letter-spacing="5">FAMILY PATHWAY NOTES / 02</text><text x="78" y="190" fill="#050b14" font-family="Arial,sans-serif" font-size="62" font-weight="800">STAY INFORMED</text><path d="M78 226h300" stroke="#c99a35" stroke-width="6"/><g transform="translate(76 300)"><circle cx="178" cy="178" r="164" fill="none" stroke="#153c2a" stroke-width="4"/><circle cx="178" cy="178" r="92" fill="none" stroke="#c99a35" stroke-width="4"/><path d="m178 14 38 164-38 164-38-164z" fill="#c99a35"/><path d="m14 178 164-38 164 38-164 38z" fill="#153c2a"/><circle cx="178" cy="178" r="19" fill="#f8f8f5" stroke="#050b14" stroke-width="5"/><text x="164" y="-12" fill="#050b14" font-family="Arial,sans-serif" font-size="18" font-weight="700">N</text><text x="342" y="184" fill="#050b14" font-family="Arial,sans-serif" font-size="18" font-weight="700">E</text><text x="170" y="392" fill="#050b14" font-family="Arial,sans-serif" font-size="18" font-weight="700">S</text><text x="-10" y="184" fill="#050b14" font-family="Arial,sans-serif" font-size="18" font-weight="700">W</text></g><g transform="translate(490 330)" fill="#050b14" font-family="Arial,sans-serif"><text y="0" fill="#153c2a" font-size="17" font-weight="700" letter-spacing="3">BEFORE COMMITMENT</text><text y="72" font-size="25" font-weight="700">✓ Responsibilities</text><text y="128" font-size="25" font-weight="700">✓ Costs and risks</text><text y="184" font-size="25" font-weight="700">✓ Safeguarding</text><text y="240" font-size="25" font-weight="700">✓ Education</text><text y="296" font-size="25" font-weight="700">✓ Next steps</text></g><path d="M78 850h760" stroke="#050b14" stroke-opacity=".18" stroke-width="2"/><text x="78" y="900" fill="#153c2a" font-family="Arial,sans-serif" font-size="18" font-weight="700" letter-spacing="3">CLARITY IS PART OF THE PATHWAY</text></g></svg>
