<svg xmlns="http://www.w3.org/2000/svg" viewBox="0 0 1200 1200"><rect width="1200" height="1200" fill="#050b14"/><circle cx="960" cy="160" r="310" fill="#c99a35" opacity=".12"/><path d="M86 92h1028v1016H86z" fill="#102b32" stroke="#c99a35" stroke-opacity=".55" stroke-width="3"/><path d="M600 92v1016M86 600h1028M86 92l1028 1016M1114 92 86 1108" fill="none" stroke="#e4bb5a" stroke-opacity=".22" stroke-width="3"/><circle cx="600" cy="600" r="138" fill="none" stroke="#e4bb5a" stroke-opacity=".32" stroke-width="3"/><path d="M190 930C310 880 308 706 456 704c150-2 116-220 258-218 152 2 110 218 270 188 52-10 66-64 64-124" fill="none" stroke="#e4bb5a" stroke-width="12" stroke-linecap="round"/><g fill="#050b14" stroke="#e4bb5a" stroke-width="5"><circle cx="190" cy="930" r="28"/><circle cx="456" cy="704" r="28"/><circle cx="714" cy="486" r="28"/><circle cx="1048" cy="550" r="28"/></g><g fill="#f8f8f5" font-family="Arial,sans-serif" font-size="25" font-weight="700" letter-spacing="3"><text x="142" y="1010">DEVELOPMENT</text><text x="398" y="642">EXPOSURE</text><text x="650" y="424">OPPORTUNITY</text><text x="918" y="508">NEXT STEP</text></g><g fill="#e4bb5a" font-family="Arial,sans-serif" font-size="16" letter-spacing="4"><text x="120" y="145">VERUM INTERNATIONAL / PLAYER PATHWAY</text><text x="850" y="1060">FIT BEFORE DESTINATION</text></g></svg>
