<svg xmlns="http://www.w3.org/2000/svg" viewBox="0 0 1200 1200"><rect width="1200" height="1200" fill="#f8f8f5"/><path d="M0 210h1200M0 990h1200M210 0v1200M990 0v1200" stroke="#153c2a" stroke-opacity=".09" stroke-width="2"/><path d="M112 900C190 720 270 780 340 610s166-158 244-4 128 186 226 60 166-114 278-278" fill="none" stroke="#153c2a" stroke-width="22" stroke-linecap="round"/><path d="M112 900C190 720 270 780 340 610s166-158 244-4 128 186 226 60 166-114 278-278" fill="none" stroke="#c99a35" stroke-width="7" stroke-dasharray="2 30" stroke-linecap="round"/><g fill="#050b14" stroke="#c99a35" stroke-width="7"><circle cx="112" cy="900" r="38"/><circle cx="340" cy="610" r="38"/><circle cx="584" cy="606" r="38"/><circle cx="810" cy="666" r="38"/><circle cx="1088" cy="388" r="38"/></g><g fill="#f8f8f5" font-family="Arial,sans-serif" font-size="24" font-weight="800" text-anchor="middle"><text x="112" y="909">01</text><text x="340" y="619">02</text><text x="584" y="615">03</text><text x="810" y="675">04</text><text x="1088" y="397">05</text></g><g fill="#050b14" font-family="Arial,sans-serif" font-size="18" font-weight="700" letter-spacing="2"><text x="72" y="1000">EVALUATE</text><text x="280" y="525">DEVELOP</text><text x="520" y="700">MATCH</text><text x="770" y="760">EXPERIENCE</text><text x="940" y="300">REVIEW</text></g><text x="82" y="120" fill="#153c2a" font-family="Arial,sans-serif" font-size="20" font-weight="700" letter-spacing="5">THE VERUM PATHWAY / A RESPONSIBLE ROUTE</text><text x="760" y="1100" fill="#c99a35" font-family="Arial,sans-serif" font-size="18" font-weight="700" letter-spacing="3">PLAYER BEFORE PROGRAM</text></svg>
